<svg width="25" height="26" viewBox="0 0 25 26" fill="none" xmlns="http://www.w3.org/2000/svg">
<g clip-path="url(#clip0_280_167)">
<path d="M18.125 3H6.875C4.45875 3 2.5 4.95875 2.5 7.375V18.625C2.5 21.0413 4.45875 23 6.875 23H18.125C20.5413 23 22.5 21.0413 22.5 18.625V7.375C22.5 4.95875 20.5413 3 18.125 3ZM21.25 18.625C21.25 20.3509 19.8509 21.75 18.125 21.75H6.875C5.1491 21.75 3.75 20.3509 3.75 18.625V7.375C3.75 5.6491 5.1491 4.25 6.875 4.25H18.125C19.8509 4.25 21.25 5.6491 21.25 7.375V18.625Z" fill="#818181"/>
<path d="M8.75 7.375H7.5C7.1548 7.375 6.875 7.6548 6.875 8V9.25C6.875 9.5952 7.1548 9.875 7.5 9.875H8.75C9.0952 9.875 9.375 9.5952 9.375 9.25V8C9.375 7.6548 9.0952 7.375 8.75 7.375Z" fill="#818181"/>
<path d="M8.75 11.75H7.5C7.1548 11.75 6.875 12.0298 6.875 12.375V13.625C6.875 13.9702 7.1548 14.25 7.5 14.25H8.75C9.0952 14.25 9.375 13.9702 9.375 13.625V12.375C9.375 12.0298 9.0952 11.75 8.75 11.75Z" fill="#818181"/>
<path d="M8.75 16.125H7.5C7.1548 16.125 6.875 16.4048 6.875 16.75V18C6.875 18.3452 7.1548 18.625 7.5 18.625H8.75C9.0952 18.625 9.375 18.3452 9.375 18V16.75C9.375 16.4048 9.0952 16.125 8.75 16.125Z" fill="#818181"/>
<path d="M18.125 8H10.625V9.25H18.125V8Z" fill="#818181"/>
<path d="M18.125 12.375H10.625V13.625H18.125V12.375Z" fill="#818181"/>
<path d="M18.125 16.75H10.625V18H18.125V16.75Z" fill="#818181"/>
</g>
<defs>
<clipPath id="clip0_280_167">
<rect width="20" height="20" fill="white" transform="translate(2.5 3)"/>
</clipPath>
</defs>
</svg>
