<svg width="25" height="26" viewBox="0 0 25 26" fill="none" xmlns="http://www.w3.org/2000/svg">
<g clip-path="url(#clip0_280_141)">
<path d="M18.5869 3C16.3278 3 15.1087 7.47998 15.1087 11.6956C15.1087 15.9113 16.3278 20.3913 18.5869 20.3913C20.8461 20.3913 22.0652 15.9113 22.0652 11.6956C22.0652 7.47998 20.8461 3 18.5869 3ZM18.5869 19.5217C17.353 19.5217 15.9783 16.3078 15.9783 11.6956C15.9783 7.08346 17.353 3.86955 18.5869 3.86955C19.8209 3.86955 21.1956 7.08346 21.1956 11.6956C21.1956 16.3078 19.8209 19.5217 18.5869 19.5217Z" fill="#818181"/>
<path d="M18.1522 9.08694C17.9122 9.08694 17.7174 9.28173 17.7174 9.52173C17.7174 9.76173 17.9122 9.95653 18.1522 9.95653C18.8713 9.95653 19.4565 10.7365 19.4565 11.6957C19.4565 12.6548 18.8713 13.4348 18.1522 13.4348C17.9122 13.4348 17.7174 13.6296 17.7174 13.8696C17.7174 14.1096 17.9122 14.3044 18.1522 14.3044C19.3513 14.3044 20.3261 13.1339 20.3261 11.6957C20.3261 10.2574 19.3513 9.08694 18.1522 9.08694Z" fill="#818181"/>
<path d="M15.9783 11.6956C15.9783 8.78519 16.5496 6.11217 17.4704 4.71823C17.5861 4.54431 17.5609 4.31303 17.4104 4.16694C17.26 4.02086 17.0261 4.00345 16.8574 4.12345L11.0574 8.21739H6.41303C4.49478 8.21739 2.93478 9.77739 2.93478 11.6956C2.93478 13.6139 4.49478 15.1739 6.41303 15.1739H11.0574L16.8573 19.2678C16.933 19.3208 17.0199 19.3469 17.1078 19.3469C17.2173 19.3469 17.3269 19.3052 17.4104 19.2243C17.5608 19.0791 17.586 18.8478 17.4704 18.673C16.5496 17.2791 15.9783 14.6061 15.9783 11.6956ZM11.4461 14.3835C11.373 14.3322 11.2861 14.3044 11.1956 14.3044H6.41303C4.97478 14.3044 3.80433 13.1339 3.80433 11.6957C3.80433 10.2574 4.97478 9.08698 6.41303 9.08698H11.1956C11.2861 9.08698 11.373 9.05914 11.4461 9.00697L15.9982 5.79391C15.4356 7.36871 15.1087 9.47653 15.1087 11.6956C15.1087 13.9147 15.4356 16.0226 15.9982 17.5965L11.4461 14.3835Z" fill="#818181"/>
<path d="M10.8522 18.6748L11.6226 14.8244C11.6478 14.6965 11.6148 14.5643 11.5322 14.4635C11.4495 14.3627 11.3252 14.3044 11.1956 14.3044C9.59044 14.3044 9.02174 12.8991 9.02174 11.6957C9.02174 10.4922 9.59044 9.08698 11.1956 9.08698C11.4356 9.08698 11.6304 8.89218 11.6304 8.65218C11.6304 8.41218 11.4356 8.21739 11.1956 8.21739C9.37477 8.21739 8.15215 9.61479 8.15215 11.6956C8.15215 13.5704 9.14521 14.8904 10.673 15.133L9.99911 18.5035C9.90866 18.9574 10.0495 19.4243 10.3791 19.7539C10.6252 20.0009 10.7608 20.3278 10.7608 20.6765V20.9748C10.7608 21.3235 10.6252 21.6513 10.3791 21.8982L10.2713 22.006L8.73303 20.9808C8.36957 20.7382 8.15215 20.3321 8.15215 19.8956V16.4782C8.15215 16.3626 8.10605 16.2521 8.02433 16.1704L6.28518 14.4313C6.11562 14.2617 5.83995 14.2617 5.67039 14.4313C5.50082 14.6008 5.50082 14.8765 5.67039 15.0461L7.28256 16.6582V19.8956C7.28256 20.6243 7.64431 21.2999 8.25039 21.7043L10.0852 22.9269C10.1591 22.9765 10.2425 23 10.326 23C10.4382 23 10.5495 22.9565 10.6338 22.873L10.9938 22.513C11.4043 22.1026 11.6304 21.5565 11.6304 20.9757V20.6774C11.6304 20.0965 11.4043 19.5505 10.9931 19.1383C10.8705 19.0165 10.8183 18.8426 10.8522 18.6748Z" fill="#818181"/>
</g>
<defs>
<clipPath id="clip0_280_141">
<rect width="20" height="20" fill="white" transform="translate(2.5 3)"/>
</clipPath>
</defs>
</svg>
