<svg width="25" height="26" viewBox="0 0 25 26" fill="none" xmlns="http://www.w3.org/2000/svg">
<path d="M5.41668 9.66667H9.58334C10.1359 9.66667 10.6658 9.44718 11.0565 9.05648C11.4472 8.66578 11.6667 8.13587 11.6667 7.58334V5.91667C11.6667 5.36414 11.4472 4.83423 11.0565 4.44353C10.6658 4.05283 10.1359 3.83334 9.58334 3.83334H5.41668C4.86414 3.83334 4.33424 4.05283 3.94354 4.44353C3.55284 4.83423 3.33334 5.36414 3.33334 5.91667V7.58334C3.33334 8.13587 3.55284 8.66578 3.94354 9.05648C4.33424 9.44718 4.86414 9.66667 5.41668 9.66667ZM4.16668 5.91667C4.16668 5.58515 4.29837 5.26721 4.53279 5.03279C4.76721 4.79837 5.08516 4.66667 5.41668 4.66667H9.58334C9.91486 4.66667 10.2328 4.79837 10.4672 5.03279C10.7016 5.26721 10.8333 5.58515 10.8333 5.91667V7.58334C10.8333 7.91486 10.7016 8.2328 10.4672 8.46722C10.2328 8.70164 9.91486 8.83334 9.58334 8.83334H5.41668C5.08516 8.83334 4.76721 8.70164 4.53279 8.46722C4.29837 8.2328 4.16668 7.91486 4.16668 7.58334V5.91667Z" fill="#818181"/>
<path d="M19.5833 16.3333H15.4167C14.8641 16.3333 14.3342 16.5528 13.9435 16.9435C13.5528 17.3342 13.3333 17.8641 13.3333 18.4167V20.0833C13.3333 20.6359 13.5528 21.1658 13.9435 21.5565C14.3342 21.9472 14.8641 22.1667 15.4167 22.1667H19.5833C20.1359 22.1667 20.6658 21.9472 21.0565 21.5565C21.4472 21.1658 21.6667 20.6359 21.6667 20.0833V18.4167C21.6667 17.8641 21.4472 17.3342 21.0565 16.9435C20.6658 16.5528 20.1359 16.3333 19.5833 16.3333ZM20.8333 20.0833C20.8333 20.4149 20.7016 20.7328 20.4672 20.9672C20.2328 21.2016 19.9149 21.3333 19.5833 21.3333H15.4167C15.0852 21.3333 14.7672 21.2016 14.5328 20.9672C14.2984 20.7328 14.1667 20.4149 14.1667 20.0833V18.4167C14.1667 18.0851 14.2984 17.7672 14.5328 17.5328C14.7672 17.2984 15.0852 17.1667 15.4167 17.1667H19.5833C19.9149 17.1667 20.2328 17.2984 20.4672 17.5328C20.7016 17.7672 20.8333 18.0851 20.8333 18.4167V20.0833Z" fill="#818181"/>
<path d="M5.41668 22.1667H9.58334C10.1359 22.1667 10.6658 21.9472 11.0565 21.5565C11.4472 21.1658 11.6667 20.6359 11.6667 20.0833V12.5833C11.6667 12.0308 11.4472 11.5009 11.0565 11.1102C10.6658 10.7195 10.1359 10.5 9.58334 10.5H5.41668C4.86414 10.5 4.33424 10.7195 3.94354 11.1102C3.55284 11.5009 3.33334 12.0308 3.33334 12.5833V20.0833C3.33334 20.6359 3.55284 21.1658 3.94354 21.5565C4.33424 21.9472 4.86414 22.1667 5.41668 22.1667ZM4.16668 12.5833C4.16668 12.2518 4.29837 11.9339 4.53279 11.6994C4.76721 11.465 5.08516 11.3333 5.41668 11.3333H9.58334C9.91486 11.3333 10.2328 11.465 10.4672 11.6994C10.7016 11.9339 10.8333 12.2518 10.8333 12.5833V20.0833C10.8333 20.4149 10.7016 20.7328 10.4672 20.9672C10.2328 21.2016 9.91486 21.3333 9.58334 21.3333H5.41668C5.08516 21.3333 4.76721 21.2016 4.53279 20.9672C4.29837 20.7328 4.16668 20.4149 4.16668 20.0833V12.5833Z" fill="#818181"/>
<path d="M19.5833 3.83334H15.4167C14.8641 3.83334 14.3342 4.05283 13.9435 4.44353C13.5528 4.83423 13.3333 5.36414 13.3333 5.91667V13.4167C13.3333 13.9692 13.5528 14.4991 13.9435 14.8898C14.3342 15.2805 14.8641 15.5 15.4167 15.5H19.5833C20.1359 15.5 20.6658 15.2805 21.0565 14.8898C21.4472 14.4991 21.6667 13.9692 21.6667 13.4167V5.91667C21.6667 5.36414 21.4472 4.83423 21.0565 4.44353C20.6658 4.05283 20.1359 3.83334 19.5833 3.83334ZM20.8333 13.4167C20.8333 13.7482 20.7016 14.0661 20.4672 14.3006C20.2328 14.535 19.9149 14.6667 19.5833 14.6667H15.4167C15.0852 14.6667 14.7672 14.535 14.5328 14.3006C14.2984 14.0661 14.1667 13.7482 14.1667 13.4167V5.91667C14.1667 5.58515 14.2984 5.26721 14.5328 5.03279C14.7672 4.79837 15.0852 4.66667 15.4167 4.66667H19.5833C19.9149 4.66667 20.2328 4.79837 20.4672 5.03279C20.7016 5.26721 20.8333 5.58515 20.8333 5.91667V13.4167Z" fill="#818181"/>
</svg>
