<svg width="25" height="26" viewBox="0 0 25 26" fill="none" xmlns="http://www.w3.org/2000/svg">
<path fill-rule="evenodd" clip-rule="evenodd" d="M17.2028 16.5431C18.3653 16.7222 19.8184 16.6241 20.6775 16.2553C21.2422 16.0128 21.5625 15.6403 21.5625 15.2097C21.5625 14.5363 21.3281 13.9138 20.9309 13.4122C20.8237 13.2772 20.6272 13.2541 20.4919 13.3613C20.3566 13.4684 20.3337 13.665 20.4409 13.8003C20.7522 14.1938 20.9375 14.6816 20.9375 15.2097C20.9375 15.3313 20.8534 15.4253 20.7372 15.5116C20.5575 15.6447 20.3016 15.7463 20.0037 15.8247C19.0625 16.0725 17.7209 16.0716 16.7859 15.82C16.5356 15.4619 16.2369 15.1372 15.8981 14.8538C16.0822 13.7094 17.1384 12.8381 18.4037 12.8381C18.9325 12.8381 19.4241 12.99 19.8316 13.2509C19.9766 13.3438 20.17 13.3016 20.2631 13.1563C20.3562 13.0109 20.3138 12.8175 20.1684 12.7247C19.9738 12.5997 19.7634 12.495 19.5406 12.4134C19.9072 12.095 20.1394 11.6256 20.1394 11.1025C20.1394 10.1444 19.3616 9.36657 18.4037 9.36657C18.1619 9.36657 17.9319 9.41625 17.7228 9.50563C17.3634 8.98844 16.8391 8.58156 16.2197 8.35469C16.5866 8.03625 16.8184 7.56688 16.8184 7.04375C16.8184 6.08563 16.0409 5.30813 15.0828 5.30813C14.125 5.30813 13.3472 6.08563 13.3472 7.04375C13.3472 7.56688 13.5791 8.03625 13.9459 8.35469C13.6122 8.47688 13.3059 8.65125 13.0384 8.86719C12.6831 8.79594 12.3169 8.79594 11.9616 8.86719C11.6941 8.65125 11.3878 8.47688 11.0541 8.35469C11.4209 8.03625 11.6528 7.56688 11.6528 7.04375C11.6528 6.08563 10.875 5.30813 9.91719 5.30813C8.95906 5.30813 8.18156 6.08563 8.18156 7.04375C8.18156 7.56688 8.41344 8.03625 8.78031 8.35469C8.16094 8.58188 7.63625 8.98844 7.27719 9.50563C7.06813 9.41625 6.83812 9.36657 6.59625 9.36657C5.63844 9.36657 4.86063 10.1444 4.86063 11.1025C4.86063 11.6256 5.0925 12.095 5.45938 12.4134C4.275 12.8475 3.4375 13.9394 3.4375 15.2097C3.4375 15.6403 3.75781 16.0128 4.3225 16.2553C5.18156 16.6241 6.63469 16.7222 7.79719 16.5431C7.51875 17.1416 7.36438 17.8025 7.36438 18.4969C7.36438 18.9759 7.62656 19.3931 8.10219 19.7259C8.24344 19.825 8.43844 19.7903 8.53719 19.6491C8.63625 19.5078 8.60187 19.3128 8.46031 19.2141C8.17562 19.0147 7.98938 18.7834 7.98938 18.4969C7.98938 16.1541 10.0153 14.2613 12.5 14.2613C14.9847 14.2613 17.0106 16.1541 17.0106 18.4969C17.0106 18.7494 16.8641 18.9594 16.635 19.1425C16.3494 19.3709 15.9416 19.5522 15.4609 19.6947C13.9297 20.1478 11.6828 20.1878 10.0197 19.8181C9.85125 19.7806 9.68406 19.8872 9.64656 20.0553C9.60938 20.2238 9.71562 20.3909 9.88406 20.4281C11.9438 20.8862 14.8462 20.74 16.4028 20.0084C17.1819 19.6425 17.6356 19.1181 17.6356 18.4969C17.6356 17.8025 17.4812 17.1416 17.2028 16.5431ZM9.10187 14.8538C8.91781 13.7094 7.86156 12.8381 6.59625 12.8381C5.20281 12.8381 4.0625 13.8956 4.0625 15.2097C4.0625 15.3313 4.14656 15.4253 4.26281 15.5116C4.4425 15.6447 4.69844 15.7463 4.99625 15.8247C5.9375 16.0725 7.27906 16.0716 8.21406 15.82C8.46438 15.4622 8.76312 15.1372 9.10187 14.8538ZM9.98063 12.5741C9.21594 12.5797 8.44625 12.4803 7.86844 12.2828C7.82563 12.3288 7.78062 12.3722 7.73344 12.4134C8.67375 12.7584 9.39562 13.5178 9.65312 14.4519C10.0747 14.1853 10.5406 13.9759 11.0381 13.8363C10.8728 13.7313 10.7166 13.6066 10.5725 13.4622C10.3106 13.2 10.1131 12.8972 9.98063 12.5741ZM17.2666 12.4134C17.2194 12.3722 17.1741 12.3288 17.1316 12.2828C16.5538 12.4803 15.7838 12.5797 15.0194 12.5744C14.8863 12.8981 14.6881 13.2019 14.425 13.4647C14.2816 13.6078 14.1263 13.7319 13.9619 13.8363C14.4594 13.9759 14.925 14.185 15.3469 14.4519C15.6044 13.5178 16.3262 12.7581 17.2666 12.4134ZM17.2016 9.85063C16.7475 9.20406 15.9669 8.77938 15.0828 8.77938C14.6012 8.77938 14.1503 8.90531 13.7662 9.12469C14.0041 9.24969 14.2275 9.41219 14.4275 9.6125C14.5494 9.73438 14.5491 9.9325 14.4272 10.0544C14.305 10.1763 14.1072 10.1759 13.9853 10.0541C13.1666 9.23438 11.8366 9.23344 11.0169 10.0522C10.1969 10.8706 10.1962 12.2009 11.0147 13.0206C11.8334 13.8403 13.1634 13.8413 13.9831 13.0225C14.6084 12.3981 14.7572 11.4763 14.4297 10.71C14.3619 10.5516 14.4353 10.3675 14.5941 10.2997C14.7525 10.2319 14.9362 10.3056 15.0041 10.4641C15.2053 10.9347 15.2681 11.4503 15.1925 11.9491C15.7659 11.9416 16.3328 11.8722 16.7878 11.7375C16.7106 11.5406 16.6678 11.3266 16.6678 11.1025C16.6678 10.6109 16.8728 10.1666 17.2016 9.85063ZM18.4037 9.99157C19.0166 9.99157 19.5144 10.4894 19.5144 11.1025C19.5144 11.7153 19.0166 12.2131 18.4037 12.2131C17.7906 12.2131 17.2928 11.7153 17.2928 11.1025C17.2928 10.4894 17.7906 9.99157 18.4037 9.99157ZM6.59625 9.99157C7.20937 9.99157 7.70719 10.4894 7.70719 11.1025C7.70719 11.7153 7.20937 12.2131 6.59625 12.2131C5.98344 12.2131 5.48563 11.7153 5.48563 11.1025C5.48563 10.4894 5.98344 9.99157 6.59625 9.99157ZM11.2337 9.12469C10.8497 8.90531 10.3988 8.77938 9.91719 8.77938C9.03313 8.77938 8.2525 9.20406 7.79844 9.85063C8.12719 10.1666 8.33219 10.6109 8.33219 11.1025C8.33219 11.3266 8.28969 11.5406 8.21219 11.7375C8.66719 11.8722 9.23406 11.9416 9.8075 11.9491C9.68188 11.1209 9.93781 10.2463 10.575 9.61C10.7744 9.41094 10.9969 9.24906 11.2337 9.12469ZM15.0828 5.93313C15.6959 5.93313 16.1934 6.43063 16.1934 7.04375C16.1934 7.65657 15.6959 8.15438 15.0828 8.15438C14.4697 8.15438 13.9722 7.65657 13.9722 7.04375C13.9722 6.43063 14.4697 5.93313 15.0828 5.93313ZM9.91719 5.93313C10.5303 5.93313 11.0278 6.43063 11.0278 7.04375C11.0278 7.65657 10.5303 8.15438 9.91719 8.15438C9.30406 8.15438 8.80656 7.65657 8.80656 7.04375C8.80656 6.43063 9.30406 5.93313 9.91719 5.93313Z" fill="#818181"/>
<path d="M9.0903 20.1875C9.26289 20.1875 9.4028 20.0476 9.4028 19.875C9.4028 19.7024 9.26289 19.5625 9.0903 19.5625C8.91771 19.5625 8.7778 19.7024 8.7778 19.875C8.7778 20.0476 8.91771 20.1875 9.0903 20.1875Z" fill="#818181"/>
</svg>
