<svg width="110" height="125" viewBox="0 0 110 125" fill="none" xmlns="http://www.w3.org/2000/svg">
<path d="M90.8083 6.43833C87.2337 4.82611 83.0153 6.38553 81.3862 9.92678L53.6466 70.1739L30.4953 19.8852H53.6466C57.5769 19.8852 60.7602 16.7347 60.7602 12.845C60.7602 8.95522 57.5769 5.8047 53.6466 5.8047H19.4371C19.4122 5.8047 19.3909 5.80822 19.366 5.80822C19.2095 5.80822 19.053 5.81878 18.8965 5.83286C18.8147 5.8399 18.7293 5.84342 18.6475 5.85046C18.5123 5.86455 18.3772 5.88919 18.242 5.91031C18.1389 5.92791 18.0322 5.94199 17.929 5.96663C17.8259 5.98775 17.7227 6.01943 17.6231 6.04407C17.4915 6.07927 17.3599 6.11447 17.2283 6.1532C17.1501 6.17784 17.0718 6.20952 16.9936 6.23768C16.8442 6.29048 16.6984 6.3468 16.5561 6.41017C16.5347 6.42073 16.5098 6.42777 16.4885 6.43481C16.4352 6.45945 16.3854 6.49113 16.332 6.51577C16.1968 6.58265 16.0617 6.64602 15.9336 6.71994C15.8447 6.76922 15.7558 6.82554 15.6704 6.87834C15.5673 6.94171 15.4606 7.00859 15.361 7.07899C15.2578 7.14939 15.1618 7.22332 15.0658 7.29724C14.984 7.3606 14.9057 7.42045 14.8275 7.48733C14.7243 7.57533 14.6247 7.66333 14.5287 7.75486C14.4611 7.81822 14.3935 7.88158 14.3295 7.94847C14.237 8.04351 14.1481 8.14207 14.0592 8.24416C13.9952 8.31808 13.9312 8.392 13.8707 8.46945C13.7924 8.56449 13.7213 8.66305 13.6466 8.76514C13.5826 8.85666 13.5186 8.94466 13.4581 9.03971C13.3976 9.13123 13.3443 9.22275 13.2874 9.31428C13.2233 9.4234 13.1629 9.53253 13.106 9.64165C13.0633 9.72613 13.0206 9.81062 12.9815 9.89862C12.9246 10.0218 12.8712 10.145 12.8214 10.2718C12.7894 10.3562 12.7574 10.4407 12.7289 10.5252C12.6827 10.6519 12.64 10.7787 12.6045 10.9124C12.576 11.0075 12.5547 11.1025 12.5298 11.2011C12.5013 11.3208 12.4729 11.4404 12.4515 11.5636C12.4302 11.6833 12.4124 11.803 12.3946 11.9227C12.3804 12.0248 12.3662 12.1269 12.359 12.229C12.3448 12.3768 12.3413 12.5246 12.3377 12.6725C12.3377 12.7323 12.327 12.7887 12.327 12.8485C12.327 12.8731 12.3306 12.8943 12.3306 12.9189C12.3306 13.0738 12.3413 13.2287 12.3555 13.3836C12.3626 13.4645 12.3662 13.549 12.3733 13.63C12.3875 13.7637 12.4124 13.8975 12.4337 14.0313C12.4515 14.1333 12.4657 14.2389 12.4906 14.3375C12.512 14.4396 12.544 14.5417 12.5689 14.6438C12.6045 14.774 12.6365 14.9043 12.6792 15.031C12.704 15.1084 12.7361 15.1859 12.7645 15.2668C12.8179 15.4112 12.8748 15.5555 12.9352 15.6963C12.9459 15.7174 12.953 15.742 12.9637 15.7632L47.1768 90.0732C47.191 90.1084 47.2123 90.1401 47.2265 90.1718C47.255 90.2316 47.2835 90.288 47.3155 90.3478C47.383 90.4816 47.4542 90.6083 47.5289 90.735C47.5609 90.7878 47.5929 90.8441 47.6249 90.8969C47.7281 91.0589 47.8348 91.2173 47.9486 91.3686C47.9593 91.3792 47.9664 91.3933 47.9735 91.4038C48.1015 91.5693 48.2331 91.7277 48.3754 91.8791C48.411 91.9178 48.4501 91.9565 48.4892 91.9952C48.5995 92.1114 48.7133 92.2205 48.8307 92.3296C48.8734 92.3684 48.916 92.4071 48.9587 92.4458C49.1152 92.5831 49.2753 92.7133 49.4424 92.833C49.4602 92.8471 49.478 92.8577 49.4958 92.8682C49.6523 92.9809 49.8124 93.0829 49.9795 93.1815C50.0293 93.2097 50.0791 93.2378 50.1289 93.266C50.2996 93.361 50.4739 93.4526 50.6518 93.5335C50.666 93.5406 50.6802 93.5511 50.698 93.5582C50.7051 93.5617 50.7087 93.5617 50.7158 93.5652C50.7407 93.5758 50.7691 93.5863 50.794 93.5969C50.9114 93.6462 51.0252 93.6954 51.1426 93.7377C51.1817 93.7518 51.2209 93.7658 51.2635 93.7799C51.3774 93.8222 51.4947 93.8574 51.6085 93.8926C51.6406 93.9031 51.669 93.9102 51.701 93.9207C52.0069 94.0052 52.3128 94.0721 52.6222 94.1179C52.6471 94.1214 52.672 94.1249 52.6969 94.1284C52.8285 94.146 52.9601 94.1601 53.0917 94.1707C53.1238 94.1742 53.1558 94.1777 53.1878 94.1777C53.3407 94.1883 53.4937 94.1953 53.6466 94.1953H53.6502H53.6537C53.8067 94.1953 53.9596 94.1883 54.1125 94.1777C54.1446 94.1742 54.1766 94.1742 54.2086 94.1707C54.3402 94.1601 54.4718 94.146 54.6034 94.1284C54.6283 94.1249 54.6532 94.1214 54.6745 94.1179C54.984 94.0721 55.2899 94.0087 55.5957 93.9207C55.6242 93.9137 55.6527 93.9031 55.6811 93.8961C55.7985 93.8609 55.9194 93.8222 56.0368 93.7799C56.0724 93.7658 56.1115 93.7553 56.1471 93.7412C56.268 93.6954 56.3889 93.6462 56.5098 93.5934C56.5312 93.5828 56.5525 93.5758 56.5774 93.5652C56.5845 93.5617 56.5917 93.5582 56.5988 93.5582C56.6166 93.5511 56.6343 93.5406 56.6521 93.53C56.8264 93.449 56.9971 93.361 57.1643 93.266C57.2177 93.2378 57.2674 93.2062 57.3172 93.178C57.4773 93.0829 57.6338 92.9809 57.7903 92.8717C57.8116 92.8577 57.833 92.8436 57.8543 92.8295C58.0215 92.7098 58.1815 92.5796 58.3345 92.4458C58.3807 92.4071 58.4234 92.3648 58.4697 92.3226C58.5835 92.217 58.6973 92.1079 58.8075 91.9952C58.8467 91.953 58.8858 91.9143 58.9249 91.872C59.0636 91.7206 59.1988 91.5622 59.3233 91.3968C59.334 91.3827 59.3446 91.3686 59.3517 91.3546C59.4656 91.2067 59.5687 91.0483 59.6719 90.8899C59.7074 90.8371 59.7359 90.7808 59.7715 90.728C59.8461 90.6012 59.9173 90.4745 59.9849 90.3408C60.0133 90.2809 60.0453 90.2246 60.0738 90.1648C60.0916 90.1296 60.1093 90.1014 60.1236 90.0662L94.3366 15.7561C95.9621 12.2254 94.3829 8.05055 90.8083 6.43833Z" fill="url(#paint0_linear_280_122)"/>
<path d="M3.39027 118C2.99427 118 2.68827 117.898 2.47227 117.694C2.26827 117.478 2.16627 117.172 2.16627 116.776V106.534C2.16627 106.138 2.26827 105.838 2.47227 105.634C2.68827 105.418 2.99427 105.31 3.39027 105.31H6.88227C9.00627 105.31 10.6443 105.856 11.7963 106.948C12.9603 108.04 13.5423 109.606 13.5423 111.646C13.5423 112.666 13.3923 113.572 13.0923 114.364C12.8043 115.144 12.3723 115.804 11.7963 116.344C11.2323 116.884 10.5363 117.298 9.70827 117.586C8.89227 117.862 7.95027 118 6.88227 118H3.39027ZM4.47027 116.092H6.73827C7.48227 116.092 8.12427 116.002 8.66427 115.822C9.21627 115.63 9.67227 115.354 10.0323 114.994C10.4043 114.622 10.6803 114.16 10.8603 113.608C11.0403 113.044 11.1303 112.39 11.1303 111.646C11.1303 110.158 10.7643 109.048 10.0323 108.316C9.30027 107.584 8.20227 107.218 6.73827 107.218H4.47027V116.092ZM19.9992 118.18C19.0032 118.18 18.1452 117.994 17.4252 117.622C16.7052 117.25 16.1472 116.722 15.7512 116.038C15.3672 115.354 15.1752 114.544 15.1752 113.608C15.1752 112.696 15.3612 111.898 15.7332 111.214C16.1172 110.53 16.6392 109.996 17.2992 109.612C17.9712 109.216 18.7332 109.018 19.5852 109.018C20.2092 109.018 20.7672 109.12 21.2592 109.324C21.7632 109.528 22.1892 109.822 22.5372 110.206C22.8972 110.59 23.1672 111.058 23.3472 111.61C23.5392 112.15 23.6352 112.762 23.6352 113.446C23.6352 113.662 23.5572 113.83 23.4012 113.95C23.2572 114.058 23.0472 114.112 22.7712 114.112H16.9932V112.816H22.0512L21.7632 113.086C21.7632 112.534 21.6792 112.072 21.5112 111.7C21.3552 111.328 21.1212 111.046 20.8092 110.854C20.5092 110.65 20.1312 110.548 19.6752 110.548C19.1712 110.548 18.7392 110.668 18.3792 110.908C18.0312 111.136 17.7612 111.466 17.5692 111.898C17.3892 112.318 17.2992 112.822 17.2992 113.41V113.536C17.2992 114.52 17.5272 115.258 17.9832 115.75C18.4512 116.23 19.1352 116.47 20.0352 116.47C20.3472 116.47 20.6952 116.434 21.0792 116.362C21.4752 116.278 21.8472 116.14 22.1952 115.948C22.4472 115.804 22.6692 115.744 22.8612 115.768C23.0532 115.78 23.2032 115.846 23.3112 115.966C23.4312 116.086 23.5032 116.236 23.5272 116.416C23.5512 116.584 23.5152 116.758 23.4192 116.938C23.3352 117.118 23.1852 117.274 22.9692 117.406C22.5492 117.67 22.0632 117.868 21.5112 118C20.9712 118.12 20.4672 118.18 19.9992 118.18ZM28.8404 118.144C28.5404 118.144 28.2764 118.066 28.0484 117.91C27.8324 117.754 27.6524 117.514 27.5084 117.19L24.6464 110.548C24.5384 110.284 24.4964 110.038 24.5204 109.81C24.5564 109.582 24.6644 109.402 24.8444 109.27C25.0364 109.126 25.2944 109.054 25.6184 109.054C25.8944 109.054 26.1164 109.12 26.2844 109.252C26.4524 109.372 26.6024 109.606 26.7344 109.954L29.1644 116.02H28.6244L31.1264 109.936C31.2584 109.6 31.4084 109.372 31.5764 109.252C31.7564 109.12 31.9964 109.054 32.2964 109.054C32.5604 109.054 32.7704 109.126 32.9264 109.27C33.0824 109.402 33.1784 109.582 33.2144 109.81C33.2504 110.026 33.2084 110.266 33.0884 110.53L30.1724 117.19C30.0404 117.514 29.8604 117.754 29.6324 117.91C29.4164 118.066 29.1524 118.144 28.8404 118.144ZM36.1366 118.144C35.7646 118.144 35.4766 118.042 35.2726 117.838C35.0806 117.622 34.9846 117.328 34.9846 116.956V106.48C34.9846 106.096 35.0866 105.808 35.2906 105.616C35.4946 105.412 35.7826 105.31 36.1546 105.31H40.4926C41.8846 105.31 42.9586 105.658 43.7146 106.354C44.4706 107.05 44.8486 108.022 44.8486 109.27C44.8486 110.518 44.4706 111.496 43.7146 112.204C42.9586 112.9 41.8846 113.248 40.4926 113.248H37.2886V116.956C37.2886 117.328 37.1926 117.622 37.0006 117.838C36.8086 118.042 36.5206 118.144 36.1366 118.144ZM37.2886 111.43H40.1326C40.9486 111.43 41.5666 111.25 41.9866 110.89C42.4066 110.518 42.6166 109.978 42.6166 109.27C42.6166 108.562 42.4066 108.028 41.9866 107.668C41.5666 107.308 40.9486 107.128 40.1326 107.128H37.2886V111.43ZM47.6268 118.144C47.2668 118.144 46.9908 118.048 46.7988 117.856C46.6068 117.652 46.5108 117.364 46.5108 116.992V106.3C46.5108 105.928 46.6068 105.646 46.7988 105.454C46.9908 105.262 47.2668 105.166 47.6268 105.166C47.9868 105.166 48.2628 105.262 48.4548 105.454C48.6588 105.646 48.7608 105.928 48.7608 106.3V110.962H48.5088C48.7728 110.326 49.1808 109.846 49.7328 109.522C50.2968 109.186 50.9328 109.018 51.6408 109.018C52.3488 109.018 52.9308 109.15 53.3868 109.414C53.8428 109.678 54.1848 110.08 54.4128 110.62C54.6408 111.148 54.7548 111.82 54.7548 112.636V116.992C54.7548 117.364 54.6588 117.652 54.4668 117.856C54.2748 118.048 53.9988 118.144 53.6388 118.144C53.2788 118.144 52.9968 118.048 52.7928 117.856C52.6008 117.652 52.5048 117.364 52.5048 116.992V112.744C52.5048 112.06 52.3728 111.562 52.1088 111.25C51.8568 110.938 51.4608 110.782 50.9208 110.782C50.2608 110.782 49.7328 110.992 49.3368 111.412C48.9528 111.82 48.7608 112.366 48.7608 113.05V116.992C48.7608 117.76 48.3828 118.144 47.6268 118.144ZM59.9381 118.18C59.3021 118.18 58.7321 118.06 58.2281 117.82C57.7361 117.568 57.3461 117.232 57.0581 116.812C56.7821 116.392 56.6441 115.918 56.6441 115.39C56.6441 114.742 56.8121 114.232 57.1481 113.86C57.4841 113.476 58.0301 113.2 58.7861 113.032C59.5421 112.864 60.5561 112.78 61.8281 112.78H62.7281V114.076H61.8461C61.1021 114.076 60.5081 114.112 60.0641 114.184C59.6201 114.256 59.3021 114.382 59.1101 114.562C58.9301 114.73 58.8401 114.97 58.8401 115.282C58.8401 115.678 58.9781 116.002 59.2541 116.254C59.5301 116.506 59.9141 116.632 60.4061 116.632C60.8021 116.632 61.1501 116.542 61.4501 116.362C61.7621 116.17 62.0081 115.912 62.1881 115.588C62.3681 115.264 62.4581 114.892 62.4581 114.472V112.402C62.4581 111.802 62.3261 111.37 62.0621 111.106C61.7981 110.842 61.3541 110.71 60.7301 110.71C60.3821 110.71 60.0041 110.752 59.5961 110.836C59.2001 110.92 58.7801 111.064 58.3361 111.268C58.1081 111.376 57.9041 111.406 57.7241 111.358C57.5561 111.31 57.4241 111.214 57.3281 111.07C57.2321 110.914 57.1841 110.746 57.1841 110.566C57.1841 110.386 57.2321 110.212 57.3281 110.044C57.4241 109.864 57.5861 109.732 57.8141 109.648C58.3661 109.42 58.8941 109.258 59.3981 109.162C59.9141 109.066 60.3821 109.018 60.8021 109.018C61.6661 109.018 62.3741 109.15 62.9261 109.414C63.4901 109.678 63.9101 110.08 64.1861 110.62C64.4621 111.148 64.6001 111.832 64.6001 112.672V116.992C64.6001 117.364 64.5101 117.652 64.3301 117.856C64.1501 118.048 63.8921 118.144 63.5561 118.144C63.2201 118.144 62.9561 118.048 62.7641 117.856C62.5841 117.652 62.4941 117.364 62.4941 116.992V116.128H62.6381C62.5541 116.548 62.3861 116.914 62.1341 117.226C61.8941 117.526 61.5881 117.76 61.2161 117.928C60.8441 118.096 60.4181 118.18 59.9381 118.18ZM67.9999 118.144C67.6399 118.144 67.3639 118.048 67.1719 117.856C66.9799 117.652 66.8839 117.364 66.8839 116.992V110.188C66.8839 109.816 66.9799 109.534 67.1719 109.342C67.3639 109.15 67.6339 109.054 67.9819 109.054C68.3299 109.054 68.5999 109.15 68.7919 109.342C68.9839 109.534 69.0799 109.816 69.0799 110.188V111.412L68.8819 110.962C69.1459 110.326 69.5539 109.846 70.1059 109.522C70.6699 109.186 71.3059 109.018 72.0139 109.018C72.7219 109.018 73.3039 109.15 73.7599 109.414C74.2159 109.678 74.5579 110.08 74.7859 110.62C75.0139 111.148 75.1279 111.82 75.1279 112.636V116.992C75.1279 117.364 75.0319 117.652 74.8399 117.856C74.6479 118.048 74.3719 118.144 74.0119 118.144C73.6519 118.144 73.3699 118.048 73.1659 117.856C72.9739 117.652 72.8779 117.364 72.8779 116.992V112.744C72.8779 112.06 72.7459 111.562 72.4819 111.25C72.2299 110.938 71.8339 110.782 71.2939 110.782C70.6339 110.782 70.1059 110.992 69.7099 111.412C69.3259 111.82 69.1339 112.366 69.1339 113.05V116.992C69.1339 117.76 68.7559 118.144 67.9999 118.144ZM81.4452 118.18C80.6652 118.18 80.0112 118.048 79.4832 117.784C78.9672 117.52 78.5832 117.136 78.3312 116.632C78.0792 116.116 77.9532 115.48 77.9532 114.724V110.89H77.0172C76.7292 110.89 76.5072 110.818 76.3512 110.674C76.1952 110.518 76.1172 110.308 76.1172 110.044C76.1172 109.768 76.1952 109.558 76.3512 109.414C76.5072 109.27 76.7292 109.198 77.0172 109.198H77.9532V107.56C77.9532 107.188 78.0492 106.906 78.2412 106.714C78.4452 106.522 78.7272 106.426 79.0872 106.426C79.4472 106.426 79.7232 106.522 79.9152 106.714C80.1072 106.906 80.2032 107.188 80.2032 107.56V109.198H82.1112C82.3992 109.198 82.6212 109.27 82.7772 109.414C82.9332 109.558 83.0112 109.768 83.0112 110.044C83.0112 110.308 82.9332 110.518 82.7772 110.674C82.6212 110.818 82.3992 110.89 82.1112 110.89H80.2032V114.598C80.2032 115.174 80.3292 115.606 80.5812 115.894C80.8332 116.182 81.2412 116.326 81.8052 116.326C82.0092 116.326 82.1892 116.308 82.3452 116.272C82.5012 116.236 82.6392 116.212 82.7592 116.2C82.9032 116.188 83.0232 116.236 83.1192 116.344C83.2152 116.44 83.2632 116.644 83.2632 116.956C83.2632 117.196 83.2212 117.412 83.1372 117.604C83.0652 117.784 82.9272 117.91 82.7232 117.982C82.5672 118.03 82.3632 118.072 82.1112 118.108C81.8592 118.156 81.6372 118.18 81.4452 118.18ZM88.2475 118.18C87.3355 118.18 86.5435 117.994 85.8715 117.622C85.1995 117.25 84.6775 116.722 84.3055 116.038C83.9335 115.342 83.7475 114.526 83.7475 113.59C83.7475 112.882 83.8495 112.252 84.0535 111.7C84.2695 111.136 84.5755 110.656 84.9715 110.26C85.3675 109.852 85.8415 109.546 86.3935 109.342C86.9455 109.126 87.5635 109.018 88.2475 109.018C89.1595 109.018 89.9515 109.204 90.6235 109.576C91.2955 109.948 91.8175 110.476 92.1895 111.16C92.5615 111.844 92.7475 112.654 92.7475 113.59C92.7475 114.298 92.6395 114.934 92.4235 115.498C92.2195 116.062 91.9195 116.548 91.5235 116.956C91.1275 117.352 90.6535 117.658 90.1015 117.874C89.5495 118.078 88.9315 118.18 88.2475 118.18ZM88.2475 116.47C88.6915 116.47 89.0815 116.362 89.4175 116.146C89.7535 115.93 90.0115 115.612 90.1915 115.192C90.3835 114.76 90.4795 114.226 90.4795 113.59C90.4795 112.63 90.2755 111.916 89.8675 111.448C89.4595 110.968 88.9195 110.728 88.2475 110.728C87.8035 110.728 87.4135 110.836 87.0775 111.052C86.7415 111.256 86.4775 111.574 86.2855 112.006C86.1055 112.426 86.0155 112.954 86.0155 113.59C86.0155 114.538 86.2195 115.258 86.6275 115.75C87.0355 116.23 87.5755 116.47 88.2475 116.47ZM95.7566 118.144C95.3966 118.144 95.1206 118.048 94.9286 117.856C94.7366 117.652 94.6406 117.364 94.6406 116.992V110.188C94.6406 109.816 94.7366 109.534 94.9286 109.342C95.1206 109.15 95.3906 109.054 95.7386 109.054C96.0866 109.054 96.3566 109.15 96.5486 109.342C96.7406 109.534 96.8366 109.816 96.8366 110.188V111.502L96.6386 110.962C96.8786 110.362 97.2506 109.888 97.7546 109.54C98.2586 109.192 98.8586 109.018 99.5546 109.018C100.263 109.018 100.845 109.186 101.301 109.522C101.757 109.858 102.075 110.374 102.255 111.07H102.003C102.243 110.434 102.639 109.936 103.191 109.576C103.743 109.204 104.379 109.018 105.099 109.018C105.771 109.018 106.323 109.15 106.755 109.414C107.199 109.678 107.529 110.08 107.745 110.62C107.961 111.148 108.069 111.82 108.069 112.636V116.992C108.069 117.364 107.967 117.652 107.763 117.856C107.571 118.048 107.295 118.144 106.935 118.144C106.575 118.144 106.299 118.048 106.107 117.856C105.915 117.652 105.819 117.364 105.819 116.992V112.726C105.819 112.054 105.705 111.562 105.477 111.25C105.261 110.938 104.889 110.782 104.361 110.782C103.773 110.782 103.311 110.992 102.975 111.412C102.639 111.82 102.471 112.39 102.471 113.122V116.992C102.471 117.364 102.375 117.652 102.183 117.856C101.991 118.048 101.715 118.144 101.355 118.144C100.995 118.144 100.713 118.048 100.509 117.856C100.317 117.652 100.221 117.364 100.221 116.992V112.726C100.221 112.054 100.107 111.562 99.8786 111.25C99.6626 110.938 99.2966 110.782 98.7806 110.782C98.1926 110.782 97.7306 110.992 97.3946 111.412C97.0586 111.82 96.8906 112.39 96.8906 113.122V116.992C96.8906 117.76 96.5126 118.144 95.7566 118.144Z" fill="#57CC99"/>
<defs>
<linearGradient id="paint0_linear_280_122" x1="53.6516" y1="5.8026" x2="53.6516" y2="94.1953" gradientUnits="userSpaceOnUse">
<stop stop-color="#15A36E"/>
<stop offset="1" stop-color="#96E6B3"/>
</linearGradient>
</defs>
</svg>
